Repulsion (Roman Polanski, 1965)

 
http://www.imdb.com/title/tt0059646/

Left alone when her sister goes on vacation, a young beauty finds herself besieged on all sides by the demons of her past.
 
http://www.imdb.com/title/tt0059646/awards

Catherine Deneuve	 ...	Carole
Ian Hendry	 ...	Michael
John Fraser	 ...	Colin
Yvonne Furneaux	 ...	Helen
Patrick Wymark	 ...	Landlord

Complete name                            : Repulsion.1965.720p.BluRay.x264-ESiR.mkv
Format                                   : Matroska
Format version                           : Version 2
File size                                : 4.35 GiB
Duration                                 : 1h 45mn
Overall bit rate mode                    : Variable
Overall bit rate                         : 5 915 Kbps
Movie name                               : Repulsion (1965)
Encoded date                             : UTC 2009-07-30 19:11:49
Writing application                      : mkvmerge v2.9.7 ('Tenderness') built on Jul  1 2009 18:43:35
Writing library                          : libebml v0.7.7 + libmatroska v0.8.1
Attachment                               : Yes / Yes / Yes

Video
ID                                       : 1
Format                                   : AVC
Format/Info                              : Advanced Video Codec
Format profile                           : High@L4.1
Format settings, CABAC                   : Yes
Format settings, ReFrames                : 8 frames
Codec ID                                 : V_MPEG4/ISO/AVC
Duration                                 : 1h 45mn
Bit rate                                 : 5 532 Kbps
Width                                    : 1 200 pixels
Height                                   : 720 pixels
Display aspect ratio                     : 1.667
Frame rate                               : 23.976 fps
Color space                              : YUV
Chroma subsampling                       : 4:2:0
Bit depth                                : 8 bits
Scan type                                : Progressive
Bits/(Pixel*Frame)                       : 0.267
Stream size                              : 3.98 GiB (92%)
Writing library                          : x264 core 68 r1184M 88b35c2

Language                                 : English
Default                                  : Yes
Forced                                   : No

Audio #1
ID                                       : 2
Format                                   : AC-3
Format/Info                              : Audio Coding 3
Mode extension                           : CM (complete main)
Codec ID                                 : A_AC3
Duration                                 : 1h 45mn
Bit rate mode                            : Constant
Bit rate                                 : 320 Kbps
Channel(s)                               : 1 channel
Channel positions                        : Front: C
Sampling rate                            : 48.0 KHz
Bit depth                                : 16 bits
Compression mode                         : Lossy
Stream size                              : 241 MiB (5%)
Language                                 : English
Default                                  : Yes
Forced                                   : No

Audio #2
ID                                       : 3
Format                                   : Vorbis
Format settings, Floor                   : 1
Codec ID                                 : A_VORBIS
Duration                                 : 1h 45mn
Bit rate mode                            : Variable
Bit rate                                 : 60.0 Kbps
Channel(s)                               : 1 channel
Sampling rate                            : 48.0 KHz
Compression mode                         : Lossy
Stream size                              : 45.2 MiB (1%)
Title                                    : Commentary
Writing library                          : libVorbis 1.1.1/1.1.2 (UTC 2005-03-04)
Language                                 : English
Default                                  : No
Forced                                   : No

Text
ID                                       : 4
Format                                   : ASS
Codec ID                                 : S_TEXT/ASS
Codec ID/Info                            : Advanced Sub Station Alpha
Compression mode                         : Lossless
Language                                 : English
Default                                  : Yes
Forced                                   : No